<?xml version="1.0" standalone="no"?>
<!DOCTYPE svg PUBLIC "-//W3C//DTD SVG 20010904//EN"
 "http://www.w3.org/TR/2001/REC-SVG-20010904/DTD/svg10.dtd">
<svg version="1.0" xmlns="http://www.w3.org/2000/svg"
 width="1024.000000pt" height="1024.000000pt" viewBox="0 0 1024.000000 1024.000000"
 preserveAspectRatio="xMidYMid meet">

<g transform="translate(0.000000,1024.000000) scale(0.100000,-0.100000)"
fill="#000000" stroke="none">
<path d="M2852 9144 c-22 -15 -22 -19 -22 -250 l0 -234 -302 -1 c-344 -1 -380
-3 -463 -31 -168 -55 -292 -182 -353 -362 l-27 -81 -3 -2384 c-3 -2646 -8
-2428 65 -2579 69 -141 214 -262 383 -318 52 -18 131 -19 1571 -22 l1517 -3
-59 118 c-33 65 -74 156 -92 203 l-33 85 -1380 5 c-1275 5 -1382 6 -1415 22
-53 25 -97 65 -119 109 -20 38 -20 73 -20 1994 l0 1955 3025 0 3025 0 1 -947
0 -948 89 -64 c49 -35 141 -116 204 -181 l116 -117 0 1526 c0 1692 5 1574 -67
1721 -47 97 -142 194 -233 238 -112 55 -168 62 -527 62 l-323 0 0 230 c0 223
-1 230 -22 250 -21 19 -33 20 -444 20 -400 0 -423 -1 -445 -19 -24 -19 -24
-21 -27 -250 l-3 -231 -1360 0 -1359 0 0 230 c0 217 -1 231 -20 250 -19 19
-33 20 -438 20 -362 0 -421 -2 -440 -16z"/>
<path d="M2525 6968 c-45 -24 -45 -23 -45 -420 0 -361 1 -379 19 -397 11 -11
35 -23 53 -26 18 -3 192 -5 386 -3 l354 3 19 24 c18 22 19 44 19 403 l0 379
-25 24 -24 25 -368 0 c-247 -1 -375 -4 -388 -12z"/>
<path d="M3615 6956 l-25 -25 0 -381 0 -381 25 -25 25 -25 381 3 381 3 19 24
c18 22 19 44 19 401 0 357 -1 379 -19 401 l-19 24 -381 3 -381 3 -25 -25z"/>
<path d="M4727 6960 l-27 -21 0 -388 c0 -318 3 -391 14 -407 14 -18 31 -19
388 -22 368 -3 375 -2 401 18 l27 21 0 388 c0 382 0 388 -21 407 -20 18 -43
19 -388 22 -361 3 -368 2 -394 -18z"/>
<path d="M5833 6956 l-28 -24 -3 -381 -3 -381 26 -25 25 -26 381 3 381 3 19
24 c18 22 19 44 19 390 0 201 -3 376 -6 389 -14 49 -35 52 -423 52 l-360 0
-28 -24z"/>
<path d="M6945 6968 c-11 -6 -23 -16 -27 -22 -4 -6 -8 -183 -8 -392 0 -361 1
-383 19 -405 l19 -24 363 -3 c390 -3 409 -1 429 47 7 19 10 139 8 394 -3 366
-3 366 -26 389 l-23 23 -367 2 c-263 2 -373 0 -387 -9z"/>
<path d="M2530 5743 c-8 -3 -23 -12 -32 -21 -17 -14 -18 -46 -18 -397 0 -439
-3 -421 86 -436 65 -10 637 -10 692 0 74 14 71 0 72 433 l0 387 -26 20 c-26
20 -37 21 -393 20 -201 0 -373 -3 -381 -6z"/>
<path d="M3640 5741 c-48 -13 -50 -30 -50 -429 l0 -373 23 -23 c22 -21 36 -25
148 -31 68 -4 237 -5 375 -3 231 3 254 5 273 22 21 19 21 25 21 410 0 215 -4
396 -8 402 -21 31 -53 34 -404 33 -194 -1 -364 -4 -378 -8z"/>
<path d="M4740 5738 c-13 -5 -28 -14 -32 -21 -9 -14 -11 -768 -2 -791 13 -34
47 -39 300 -43 l252 -5 53 79 c52 78 143 198 196 261 l28 33 -5 229 c-4 203
-7 231 -23 247 -16 17 -47 18 -380 19 -204 1 -373 -2 -387 -8z"/>
<path d="M6985 5528 c-187 -7 -308 -31 -514 -103 -363 -127 -682 -392 -894
-743 -102 -168 -204 -472 -228 -678 -17 -144 -6 -445 21 -568 91 -423 305
-760 645 -1017 86 -66 183 -123 320 -188 167 -80 239 -104 440 -142 110 -22
455 -19 580 5 358 68 694 239 937 479 300 296 484 713 514 1169 5 83 -6 284
-21 363 -42 226 -142 487 -245 642 -173 258 -371 431 -661 577 -331 166 -555
218 -894 204z m301 -479 l34 -21 0 -474 0 -474 479 0 c413 0 480 -2 491 -15 9
-11 12 -74 12 -236 0 -216 0 -221 -23 -245 l-22 -24 -469 0 -468 0 0 -479 0
-480 -26 -20 c-25 -20 -39 -21 -258 -21 -167 0 -235 3 -244 12 -9 9 -12 134
-12 500 l0 488 -464 0 -465 0 -15 22 c-24 34 -23 453 1 480 15 17 43 18 480
18 l463 0 0 465 c0 521 -1 474 11 497 11 21 45 24 283 26 165 2 181 0 212 -19z"/>
<path d="M2530 4523 c-8 -3 -23 -12 -32 -21 -17 -14 -18 -46 -18 -404 0 -373
1 -389 20 -408 11 -11 30 -22 42 -25 13 -3 186 -5 384 -3 340 3 363 4 383 22
21 19 21 25 21 407 0 423 2 407 -57 430 -26 9 -717 11 -743 2z"/>
<path d="M3639 4519 c-47 -17 -49 -35 -49 -429 l0 -369 24 -28 24 -28 353 -3
c376 -3 392 -2 429 46 19 23 20 42 20 383 0 246 -4 366 -11 383 -25 53 -47 56
-421 55 -191 0 -355 -5 -369 -10z"/>
<path d="M4750 4523 c-8 -3 -23 -12 -32 -21 -17 -14 -18 -46 -18 -402 0 -306
3 -390 13 -404 16 -22 82 -35 185 -35 l72 -1 0 150 c0 219 42 485 103 653 l25
67 -167 -1 c-91 0 -173 -3 -181 -6z"/>
</g>
</svg>
