<?xml version="1.0" standalone="no"?>
<!DOCTYPE svg PUBLIC "-//W3C//DTD SVG 20010904//EN"
 "http://www.w3.org/TR/2001/REC-SVG-20010904/DTD/svg10.dtd">
<svg version="1.0" xmlns="http://www.w3.org/2000/svg"
 width="1024.000000pt" height="1024.000000pt" viewBox="0 0 1024.000000 1024.000000"
 preserveAspectRatio="xMidYMid meet">

<g transform="translate(0.000000,1024.000000) scale(0.100000,-0.100000)"
fill="#000000" stroke="none">
<path d="M5010 8963 c-285 -16 -563 -89 -815 -213 -233 -114 -422 -254 -600
-442 -296 -314 -469 -674 -541 -1123 -22 -136 -25 -457 -5 -590 61 -418 196
-768 432 -1120 37 -55 345 -469 684 -920 340 -451 692 -920 784 -1042 91 -122
168 -222 171 -222 3 0 97 122 210 272 1482 1963 1427 1889 1544 2090 233 397
347 842 333 1291 -10 315 -77 584 -214 861 -296 595 -847 1009 -1498 1125
-101 18 -362 42 -410 38 -11 -1 -45 -3 -75 -5z m335 -1313 c272 -86 482 -300
556 -566 30 -106 30 -283 0 -397 -69 -264 -273 -470 -546 -553 -79 -24 -107
-27 -235 -28 -126 -1 -155 2 -220 22 -273 86 -480 296 -546 555 -29 112 -27
337 4 437 88 281 319 488 613 550 79 16 295 5 374 -20z"/>
<path d="M4825 2540 c-755 -61 -1285 -288 -1285 -550 0 -135 91 -237 304 -341
412 -203 1140 -285 1788 -203 859 108 1298 444 971 744 -183 168 -530 282
-1018 335 -168 19 -607 27 -760 15z"/>
</g>
</svg>
